<?xml version="1.0" encoding="UTF-8"?>
<svg id="Layer_1" data-name="Layer 1" xmlns="http://www.w3.org/2000/svg" viewBox="0 0 200 200">
  <defs>
    <style>
      .cls-1 {
        fill: #262223;
        stroke-width: 0px;
      }
    </style>
  </defs>
  <path class="cls-1" d="m100,62.04c12.36,0,13.83.05,18.71.27,4.51.21,6.97.96,8.6,1.59,2.16.84,3.7,1.84,5.32,3.46,1.62,1.62,2.62,3.16,3.46,5.32.63,1.63,1.39,4.08,1.59,8.6.22,4.88.27,6.35.27,18.71s-.05,13.83-.27,18.71c-.21,4.51-.96,6.97-1.59,8.6-.84,2.16-1.84,3.7-3.46,5.32s-3.16,2.62-5.32,3.46c-1.63.63-4.08,1.39-8.6,1.59-4.88.22-6.35.27-18.71.27s-13.83-.05-18.71-.27c-4.51-.21-6.97-.96-8.6-1.59-2.16-.84-3.7-1.84-5.32-3.46-1.62-1.62-2.62-3.16-3.46-5.32-.63-1.63-1.39-4.08-1.59-8.6-.22-4.88-.27-6.35-.27-18.71s.05-13.83.27-18.71c.21-4.51.96-6.97,1.59-8.6.84-2.16,1.84-3.7,3.46-5.32s3.16-2.62,5.32-3.46c1.63-.63,4.08-1.39,8.6-1.59,4.88-.22,6.35-.27,18.71-.27m0-8.34c-12.58,0-14.15.05-19.09.28-4.93.22-8.29,1.01-11.24,2.15-3.04,1.18-5.63,2.77-8.2,5.34-2.57,2.57-4.16,5.16-5.34,8.2-1.14,2.95-1.93,6.31-2.15,11.24-.23,4.94-.28,6.52-.28,19.09s.05,14.15.28,19.09c.22,4.93,1.01,8.29,2.15,11.24,1.18,3.04,2.77,5.63,5.34,8.2,2.57,2.57,5.16,4.16,8.2,5.34,2.95,1.14,6.31,1.93,11.24,2.15,4.94.23,6.52.28,19.09.28s14.15-.05,19.09-.28c4.93-.22,8.29-1.01,11.24-2.15,3.04-1.18,5.63-2.77,8.2-5.34,2.57-2.57,4.16-5.16,5.34-8.2,1.14-2.95,1.93-6.31,2.15-11.24.23-4.94.28-6.52.28-19.09s-.05-14.15-.28-19.09c-.22-4.93-1.01-8.29-2.15-11.24-1.18-3.04-2.77-5.63-5.34-8.2-2.57-2.57-5.16-4.16-8.2-5.34-2.95-1.14-6.31-1.93-11.24-2.15-4.94-.23-6.52-.28-19.09-.28h0Z"/>
  <path class="cls-1" d="m100,76.22c-13.13,0-23.78,10.65-23.78,23.78s10.65,23.78,23.78,23.78,23.78-10.65,23.78-23.78-10.65-23.78-23.78-23.78Zm0,39.21c-8.52,0-15.44-6.91-15.44-15.44s6.91-15.44,15.44-15.44,15.44,6.91,15.44,15.44-6.91,15.44-15.44,15.44Z"/>
  <circle class="cls-1" cx="124.72" cy="75.28" r="5.56"/>
</svg>