<?xml version="1.0" encoding="UTF-8"?>
<svg id="Layer_1" data-name="Layer 1" xmlns="http://www.w3.org/2000/svg" viewBox="0 0 200 200">
  <defs>
    <style>
      .cls-1 {
        fill: #262223;
        stroke-width: 0px;
      }
    </style>
  </defs>
  <path class="cls-1" d="m81.97,87.97h-13.55c-.6,0-1.09.49-1.09,1.09v43.52c0,.6.49,1.09,1.09,1.09h13.55c.6,0,1.09-.49,1.09-1.09v-43.52c0-.6-.49-1.09-1.09-1.09Z"/>
  <path class="cls-1" d="m75.2,66.34c-4.93,0-8.94,4.01-8.94,8.93s4.01,8.93,8.94,8.93,8.93-4.01,8.93-8.93c0-4.92-4.01-8.93-8.93-8.93Z"/>
  <path class="cls-1" d="m116.42,86.89c-5.44,0-9.46,2.34-11.9,5v-2.83c0-.6-.49-1.09-1.09-1.09h-12.97c-.6,0-1.09.49-1.09,1.09v43.52c0,.6.49,1.09,1.09,1.09h13.52c.6,0,1.09-.49,1.09-1.09v-21.53c0-7.26,1.97-10.08,7.03-10.08,5.51,0,5.95,4.53,5.95,10.46v21.16c0,.6.49,1.09,1.09,1.09h13.52c.6,0,1.09-.49,1.09-1.09v-23.87c0-10.79-2.06-21.82-17.31-21.82Z"/>
</svg>