<?xml version="1.0" encoding="UTF-8"?>
<svg id="Layer_1" data-name="Layer 1" xmlns="http://www.w3.org/2000/svg" viewBox="0 0 200 200">
  <defs>
    <style>
      .cls-1 {
        fill: #262223;
        stroke-width: 0px;
      }
    </style>
  </defs>
  <path id="inner-path" class="cls-1" d="m146.59,125.09c-.82,1.91-4.94,3.5-11.92,4.57-.65.1-.93,1.16-1.31,2.89-.16.72-.31,1.42-.53,2.16-.13.64-.73,1.09-1.38,1.03h-.11c-.67-.02-1.33-.11-1.99-.25-1.72-.36-3.48-.55-5.24-.55-1.27,0-2.53.11-3.78.32-2.63.67-5.08,1.92-7.17,3.66-3.52,3.01-7.95,4.75-12.58,4.96-.27,0-.52,0-.71-.02-.15.01-.31.02-.47.02-4.63-.2-9.05-1.95-12.57-4.96-2.09-1.75-4.54-3-7.18-3.67-1.25-.21-2.51-.32-3.77-.32-1.76.02-3.52.22-5.24.59-.65.15-1.32.25-1.99.28-.7.08-1.34-.38-1.49-1.07-.22-.75-.38-1.47-.53-2.17-.38-1.74-.66-2.81-1.31-2.91-6.98-1.08-11.11-2.66-11.93-4.59-.08-.19-.13-.4-.14-.61-.03-.57.37-1.08.94-1.17,5.77-1.05,10.98-4.14,14.65-8.71,2.02-2.34,3.71-4.96,5-7.77l.03-.05c.77-1.26.95-2.8.48-4.2-.9-2.12-3.88-3.07-5.85-3.69-.49-.15-.95-.3-1.32-.45-1.75-.69-4.62-2.15-4.24-4.16.6-1.55,2.12-2.55,3.79-2.49.39,0,.79.07,1.15.23,1.47.75,3.09,1.18,4.74,1.25.98.07,1.95-.23,2.73-.83-.05-.93-.11-1.86-.17-2.79-.9-6.29-.51-12.7,1.13-18.84,3.95-9.01,12.9-14.78,22.74-14.66.63,0,1.25-.01,1.88-.02,9.85-.13,18.82,5.65,22.78,14.67,1.64,6.15,2.02,12.56,1.13,18.86l-.02.31c-.05.87-.11,1.69-.15,2.48.7.56,1.58.85,2.47.83,1.56-.12,3.07-.54,4.47-1.24.46-.2.96-.3,1.46-.29.57,0,1.14.11,1.67.32h.03c1.23.3,2.15,1.31,2.34,2.55.02.98-.71,2.43-4.27,3.84-.37.14-.83.29-1.32.45-1.97.63-4.95,1.57-5.85,3.69-.47,1.4-.29,2.94.48,4.2l.03.05c3.62,8.26,10.89,14.36,19.65,16.48.57.09.97.6.94,1.17-.01.21-.06.42-.15.61Z"/>
</svg>