<?xml version="1.0" encoding="UTF-8"?>
<svg id="Layer_1" data-name="Layer 1" xmlns="http://www.w3.org/2000/svg" viewBox="0 0 200 200">
  <defs>
    <style>
      .cls-1 {
        fill: #262223;
        stroke-width: 0px;
      }
    </style>
  </defs>
  <path class="cls-1" d="m128.82,74.66c-.6-.31-1.18-.65-1.74-1.01-1.64-1.08-3.14-2.36-4.48-3.8-3.34-3.82-4.59-7.7-5.05-10.41h.02c-.38-2.25-.23-3.71-.2-3.71h-15.21v58.81c0,.79,0,1.57-.03,2.34,0,.1,0,.18-.01.29,0,.04,0,.09,0,.13v.03c-.33,4.29-2.76,8.13-6.5,10.25-1.92,1.09-4.09,1.66-6.29,1.66-7.09,0-12.83-5.78-12.83-12.91s5.74-12.91,12.83-12.91c1.34,0,2.67.21,3.95.63l.02-15.49c-7.83-1.01-15.72,1.3-21.77,6.37-2.62,2.28-4.83,5-6.51,8.03-.64,1.11-3.06,5.56-3.36,12.77-.18,4.1,1.05,8.34,1.63,10.1v.04c.37,1.03,1.8,4.56,4.13,7.53,1.88,2.38,4.1,4.48,6.59,6.22v-.04l.04.04c7.36,5,15.53,4.68,15.53,4.68,1.41-.06,6.15,0,11.52-2.55,5.96-2.82,9.36-7.03,9.36-7.03,2.17-2.51,3.89-5.38,5.1-8.47,1.38-3.62,1.84-7.96,1.84-9.69v-31.2c.18.11,2.64,1.74,2.64,1.74,0,0,3.54,2.27,9.06,3.75,3.96,1.05,9.3,1.27,9.3,1.27v-15.1c-1.87.2-5.67-.39-9.56-2.33Z"/>
</svg>